<?xml version="1.0" encoding="UTF-8"?>
<svg width="400" height="140" version="1.1" viewBox="0 0 105.83 37.042" xmlns="http://www.w3.org/2000/svg" xmlns:cc="http://creativecommons.org/ns#" xmlns:dc="http://purl.org/dc/elements/1.1/" xmlns:rdf="http://www.w3.org/1999/02/22-rdf-syntax-ns#">
<metadata>
<rdf:RDF>
<cc:Work rdf:about="">
<dc:format>image/svg+xml</dc:format>
<dc:type rdf:resource="http://purl.org/dc/dcmitype/StillImage"/>
<dc:title/>
</cc:Work>
</rdf:RDF>
</metadata>
<g transform="translate(0 -259.96)">
<g transform="matrix(.28908 0 0 -.28908 .15503 296.96)" fill="#5F6368">
<g transform="scale(.1)" fill="#5F6368" fill-rule="evenodd">
<path d="m366.04 1258.1h237.64c13.386 0 24.332-10.95 24.332-24.33v-237.64c0-13.383-10.95-24.332-24.332-24.332h-237.64c-13.387 0-24.336 10.949-24.336 24.332v237.64c0 13.38 10.949 24.33 24.336 24.33"/>
<path d="m682.52 1258.1h237.64c13.383 0 24.328-10.95 24.328-24.33v-237.64c0-13.383-10.945-24.332-24.332-24.332h-237.64c-13.382 0-24.335 10.949-24.335 24.332l3e-3 237.64c0 13.38 10.95 24.33 24.332 24.33"/>
<path d="m341.71 679.68v237.64c0 13.383 10.949 24.336 24.336 24.336h237.64c13.386 0 24.332-10.953 24.332-24.336v-237.64c0-13.387-10.95-24.336-24.332-24.336h-237.64c-13.387 0-24.336 10.949-24.336 24.336"/>
<path d="m341.71 363.19v237.64c0 13.387 10.949 24.336 24.336 24.336h237.64c13.386 0 24.332-10.949 24.332-24.336v-237.64c0-13.382-10.95-24.332-24.332-24.332h-237.64c-13.387 0-24.336 10.95-24.336 24.332"/>
<path d="m341.71 46.711v237.64c0 13.382 10.949 24.332 24.336 24.332h237.64c13.386 0 24.332-10.95 24.332-24.332v-237.64c0-13.387-10.95-24.332-24.332-24.332h-237.64c-13.387 0-24.336 10.945-24.336 24.332"/>
<path d="m25.223 679.68v237.64c0 13.383 10.953 24.336 24.336 24.336h237.64c13.387 0 24.336-10.953 24.336-24.336v-237.64c0-13.387-10.949-24.336-24.336-24.336h-237.64c-13.383 0-24.336 10.949-24.336 24.336"/>
<path d="m25.223 363.19v237.64c0 13.387 10.953 24.336 24.336 24.336h237.64c13.387 0 24.336-10.949 24.336-24.336v-237.64c0-13.382-10.949-24.332-24.336-24.332h-237.64c-13.383 0-24.336 10.95-24.336 24.332"/>
<path d="m25.223 46.711v237.64c0 13.382 10.953 24.332 24.336 24.332h237.64c13.387 0 24.336-10.95 24.336-24.332v-237.64c0-13.387-10.949-24.332-24.336-24.332h-237.64c-13.383 0-24.336 10.945-24.336 24.332"/>
<path d="m682.52 625.17h237.64c13.383 0 24.328-10.949 24.328-24.336v-237.64c0-13.382-10.945-24.332-24.332-24.332h-237.64c-13.382 0-24.335 10.95-24.335 24.332l3e-3 237.64c0 13.387 10.95 24.336 24.332 24.336"/>
<path d="m168.38 1275.5c88.644 0 160.53-71.88 160.53-160.52s-71.883-160.53-160.53-160.53c-88.641 0-160.52 71.887-160.52 160.53s71.883 160.52 160.52 160.52"/>
<path d="m978.07 607.68h29.156v-108.68h-29.156zm50.226 0h27.18l35.45-60.118v60.118h27.43v-108.68h-27.43l-35.27 59.664v-59.664h-27.36zm104.31-72.719 27.69 1.996c0.58-5.188 1.82-9.133 3.66-11.863 2.98-4.403 7.27-6.582 12.84-6.582 4.15 0 7.35 1.117 9.61 3.367 2.23 2.254 3.35 4.859 3.35 7.816 0 2.809-1.05 5.34-3.2 7.567-2.15 2.226-7.1 4.328-14.91 6.3-12.76 3.317-21.85 7.692-27.29 13.184-5.48 5.492-8.23 12.473-8.23 20.977 0 5.589 1.41 10.878 4.21 15.839 2.81 4.957 7.02 8.856 12.66 11.715 5.63 2.832 13.34 4.25 23.15 4.25 12.03 0 21.22-2.578 27.53-7.742 6.32-5.164 10.06-13.387 11.27-24.644l-27.43-1.848c-0.72 4.883-2.25 8.449-4.6 10.68-2.33 2.203-5.55 3.312-9.64 3.312-3.41 0-5.95-0.809-7.66-2.48-1.71-1.645-2.56-3.668-2.56-6.043 0-1.723 0.7-3.27 2.1-4.661 1.38-1.437 4.63-2.753 9.78-3.996 12.72-3.164 21.81-6.375 27.32-9.617 5.5-3.238 9.51-7.234 12.01-12.043 2.5-4.785 3.77-10.144 3.77-16.09 0-6.961-1.69-13.386-5.02-19.261-3.33-5.895-8-10.344-14.01-13.383-5.98-3.035-13.55-4.555-22.67-4.555-16 0-27.09 3.543-33.25 10.676-6.18 7.113-9.68 16.148-10.48 27.129zm93.46 72.719h88.43v-26.848h-29.68v-81.828h-29.09v81.828h-29.66zm102.75 0h29.16v-108.68h-29.16zm43.43 0h88.43v-26.848h-29.68v-81.828h-29.09v81.828h-29.66zm162.87 0h29.05v-64.801c0-6.426-0.88-12.473-2.62-18.195-1.73-5.692-4.45-10.704-8.16-14.977-3.69-4.277-7.58-7.262-11.65-9.008-5.66-2.406-12.43-3.617-20.37-3.617-4.58 0-9.58 0.355-14.99 1.113-5.42 0.731-9.94 2.203-13.58 4.399-3.63 2.207-6.97 5.343-10 9.386-3.02 4.055-5.08 8.231-6.2 12.528-1.8 6.91-2.7 13.031-2.7 18.371l0.01 64.801h29.04v-66.344c0-5.945 1.43-10.574 4.26-13.891 2.84-3.34 6.8-5.011 11.86-5.011 4.99 0 8.95 1.648 11.79 4.933 2.83 3.266 4.26 7.945 4.26 13.969zm41.7 0h88.43v-26.848h-29.68v-81.828h-29.1v81.828h-29.65zm93.43-54.399c0 17.738 4.3 31.551 12.84 41.418 8.58 9.895 20.5 14.828 35.79 14.828 15.67 0 27.75-4.855 36.23-14.57 8.47-9.695 12.72-23.305 12.72-40.789 0-12.703-1.87-23.133-5.57-31.254-3.71-8.121-9.05-14.445-16.05-18.977-7.01-4.527-15.72-6.781-26.17-6.781-10.62 0-19.4 1.949-26.38 5.848-6.95 3.918-12.58 10.094-16.92 18.543-4.32 8.453-6.49 19.027-6.49 31.734zm29.11-0.152c0-10.981 1.76-18.852 5.29-23.664 3.53-4.781 8.35-7.18 14.42-7.18 6.25 0 11.09 2.356 14.51 7.031 3.42 4.707 5.15 13.133 5.15 25.278 0 10.25-1.79 17.715-5.36 22.445-3.57 4.707-8.42 7.059-14.56 7.059-5.85 0-10.56-2.375-14.12-7.184-3.55-4.785-5.33-12.73-5.33-23.785zm128.12 54.551h71.96v-23.356h-42.74v-18.976h36.49v-21.934h-36.49v-44.41h-29.22zm87.56 0h77.96v-23.204h-48.8v-17.281h45.26v-22.164h-45.26v-21.406h50.23v-24.621h-79.39zm95.43 0h43.24c8.5 0 15.38-1.336 20.64-3.993 5.24-2.687 9.59-6.507 13.01-11.492 3.41-5.008 5.89-10.804 7.45-17.433 1.53-6.629 2.3-13.637 2.3-21.055 0-11.609-1.14-20.621-3.44-27.023-2.28-6.399-5.46-11.762-9.53-16.067-4.07-4.328-8.43-7.211-13.1-8.652-6.37-1.973-12.17-2.961-17.33-2.961h-43.24zm29.09-24.618v-59.363h7.14c6.09 0 10.4 0.762 12.96 2.328 2.57 1.547 4.59 4.278 6.06 8.153 1.44 3.863 2.16 10.168 2.16 18.867 0.01 11.519-1.61 19.387-4.86 23.637-3.27 4.253-8.66 6.378-16.2 6.378zm72.78 24.618h77.97v-23.204h-48.81v-17.281h45.27v-22.164h-45.27v-21.406h50.23v-24.621h-79.39zm95.43-108.68v108.68h48.5c8.99 0 15.87-0.883 20.61-2.68 4.75-1.774 8.59-5.063 11.51-9.891 2.91-4.812 4.36-10.683 4.36-17.59 0-6.046-1.12-11.238-3.33-15.609-2.24-4.379-5.31-7.922-9.19-10.656-2.5-1.719-5.9-3.16-10.21-4.278 3.46-1.339 5.98-2.679 7.58-4.019 1.05-0.887 2.61-2.785 4.65-5.695 2.04-2.934 3.39-5.161 4.08-6.754l14.08-31.504h-32.89l-15.54 33.222c-1.98 4.278-3.73 7.086-5.29 8.375-2.08 1.672-4.48 2.504-7.12 2.504h-2.57v-44.101zm29.23 64.648h12.28c1.31 0 3.88 0.481 7.69 1.465 1.93 0.461 3.51 1.598 4.74 3.422 1.2 1.824 1.82 3.922 1.82 6.297 0 3.515-0.96 6.203-2.9 8.074-1.92 1.899-5.54 2.832-10.85 2.832h-12.78zm130.63-46.711h-33.14l-4.56-17.937h-29.73l35.39 108.68h31.72l35.4-108.68h-30.45zm-6.09 23.508-10.41 39.07-10.34-39.07zm50.47 67.231h29.11v-81.903h45.41v-26.773h-74.52zm131.99 0h43.23c8.51 0 15.4-1.336 20.66-3.993 5.23-2.687 9.57-6.507 12.99-11.492 3.42-5.008 5.9-10.804 7.46-17.433 1.54-6.629 2.3-13.637 2.3-21.055 0.01-11.609-1.14-20.621-3.44-27.023-2.28-6.399-5.46-11.762-9.54-16.067-4.05-4.328-8.41-7.211-13.08-8.652-6.38-1.973-12.17-2.961-17.35-2.961h-43.23zm29.09-24.618v-59.363h7.13c6.1 0 10.41 0.762 12.98 2.328 2.57 1.547 4.58 4.278 6.05 8.153 1.45 3.863 2.16 10.168 2.16 18.867 0.01 11.519-1.61 19.387-4.86 23.637-3.26 4.253-8.66 6.378-16.19 6.378zm72.79 24.618h77.96v-23.204h-48.8v-17.281h45.26v-22.164h-45.26v-21.406h50.23v-24.621h-79.39v108.68"/>
<path d="m976.87 442.45h77.953v-23.203h-48.8v-17.277h45.27v-22.168h-45.27v-21.407h50.23v-24.621h-79.383zm95.433 0h43.23c8.51 0 15.39-1.34 20.65-3.996 5.24-2.684 9.58-6.504 13-11.492 3.42-5.004 5.89-10.797 7.45-17.43 1.54-6.629 2.3-13.637 2.3-21.055 0.01-11.613-1.13-20.621-3.44-27.023-2.27-6.398-5.46-11.762-9.53-16.062-4.05-4.329-8.42-7.219-13.09-8.657-6.38-1.972-12.17-2.961-17.34-2.961h-43.23zm29.09-24.617v-59.367h7.13c6.09 0 10.41 0.765 12.97 2.332 2.57 1.543 4.58 4.273 6.05 8.148 1.45 3.871 2.17 10.168 2.17 18.875 0 11.516-1.62 19.383-4.86 23.633-3.27 4.258-8.66 6.379-16.2 6.379zm134.1 24.617h29.05v-64.801c0-6.425-0.88-12.472-2.61-18.191-1.74-5.691-4.45-10.703-8.16-14.981-3.7-4.277-7.59-7.261-11.66-9.007-5.66-2.403-12.43-3.618-20.37-3.618-4.58 0-9.58 0.356-14.99 1.114-5.42 0.73-9.93 2.203-13.57 4.402s-6.98 5.34-10 9.387c-3.02 4.051-5.09 8.226-6.2 12.523-1.8 6.91-2.7 13.032-2.7 18.371v64.801h29.04v-66.344c0-5.941 1.43-10.574 4.26-13.89 2.85-3.34 6.8-5.008 11.86-5.008 5 0 8.95 1.641 11.79 4.93 2.84 3.265 4.26 7.945 4.26 13.968zm111-64.269 25.5-8.907c-1.71-8.246-4.41-15.129-8.1-20.672-3.68-5.542-8.26-9.714-13.72-12.527-5.46-2.832-12.41-4.223-20.83-4.223-10.23 0-18.61 1.719-25.08 5.137-6.49 3.442-12.1 9.488-16.81 18.141-4.69 8.652-7.06 19.711-7.06 33.199 0 17.988 4.14 31.832 12.43 41.473 8.29 9.664 20.02 14.496 35.16 14.496 11.86 0 21.18-2.758 27.98-8.297 6.79-5.543 11.83-14.043 15.12-25.508l-25.69-6.601c-0.9 3.312-1.84 5.742-2.83 7.285-1.62 2.55-3.61 4.535-5.96 5.918-2.37 1.394-5 2.078-7.92 2.078-6.57 0-11.64-3.063-15.14-9.188-2.66-4.55-3.99-11.687-3.99-21.429 0-12.071 1.59-20.321 4.75-24.797 3.18-4.481 7.63-6.703 13.35-6.703 5.58 0 9.78 1.793 12.63 5.41 2.85 3.594 4.91 8.836 6.21 15.715zm97.55-26.469h-33.15l-4.56-17.938h-29.72l35.38 108.68h31.72l35.41-108.68h-30.45zm-6.09 23.512-10.41 39.066-10.36-39.066zm113.16 2.957 25.5-8.907c-1.71-8.246-4.41-15.129-8.09-20.672-3.69-5.542-8.27-9.714-13.73-12.527-5.45-2.832-12.4-4.223-20.82-4.223-10.24 0-18.61 1.719-25.09 5.137-6.48 3.442-12.09 9.488-16.81 18.141-4.69 8.652-7.06 19.711-7.06 33.199 0.01 17.988 4.15 31.832 12.44 41.473 8.28 9.664 20.01 14.496 35.16 14.496 11.86 0 21.18-2.758 27.97-8.297 6.8-5.543 11.84-14.043 15.12-25.508l-25.68-6.601c-0.9 3.312-1.85 5.742-2.83 7.285-1.63 2.55-3.62 4.535-5.97 5.918-2.36 1.394-5 2.078-7.91 2.078-6.58 0-11.64-3.063-15.15-9.188-2.65-4.55-3.99-11.687-3.99-21.429 0.01-12.071 1.6-20.321 4.76-24.797 3.18-4.481 7.63-6.703 13.35-6.703 5.56 0 9.77 1.793 12.63 5.41 2.85 3.594 4.91 8.836 6.2 15.715zm-35.58-56.625 1.94 8.726c4 1.137 7.77 1.723 11.28 1.723 7.32 0 12.39-1.445 15.17-4.301 2.79-2.891 4.17-6.25 4.17-10.176 0-2.347-0.64-4.804-1.89-7.336-1.27-2.504-3.53-4.531-6.77-6.074-3.27-1.516-7.59-2.301-12.98-2.301-4.89 0-10.61 0.66-17.21 1.922v9.137c4.45-0.988 9.18-1.496 14.18-1.496 3.69 0 6.19 0.582 7.5 1.722 1.29 1.137 1.96 2.606 1.96 4.426 0 1.446-0.55 2.684-1.61 3.723-1.07 1.039-2.74 1.543-5.02 1.543-3.05 0-6.62-0.406-10.72-1.238zm133.13 30.156h-33.14l-4.56-17.938h-29.73l35.39 108.68h31.72l35.41-108.68h-30.46zm-6.09 23.512-10.41 39.066-10.35-39.066zm2.7 94.125h10.15c0.04-1.289 0.06-2.407 0.06-3.34 0-5.492-1.2-9.742-3.59-12.754-2.41-3.012-5.48-4.531-9.25-4.531-2.74 0-6.91 1.316-12.48 3.949-3.37 1.57-5.7 2.379-6.99 2.379-1.25 0-2.22-0.453-2.89-1.344-0.68-0.883-1.06-2.477-1.1-4.754h-10.02c-0.04 1.191-0.07 2.231-0.07 3.113 0 5.285 1.28 9.493 3.8 12.602s5.52 4.68 8.99 4.68c1.51 0 2.91-0.2 4.25-0.61 1.31-0.379 3.77-1.437 7.34-3.16 3.58-1.746 6.19-2.605 7.81-2.605 1.17 0 2.08 0.453 2.8 1.367 0.71 0.906 1.1 2.578 1.19 5.008zm44.11-81.297c0 17.738 4.3 31.55 12.84 41.418 8.58 9.894 20.5 14.828 35.78 14.828 15.68 0 27.76-4.856 36.24-14.574 8.47-9.696 12.71-23.301 12.71-40.786 0-12.703-1.86-23.128-5.56-31.253s-9.06-14.446-16.05-18.977c-7.02-4.527-15.72-6.781-26.18-6.781-10.61 0-19.4 1.949-26.37 5.843-6.95 3.926-12.58 10.102-16.92 18.547-4.32 8.453-6.49 19.032-6.49 31.735zm29.11-0.153c0-10.98 1.75-18.851 5.28-23.66 3.54-4.781 8.36-7.183 14.43-7.183 6.25 0 11.09 2.351 14.51 7.031 3.42 4.707 5.15 13.133 5.15 25.277 0 10.25-1.79 17.715-5.37 22.446-3.57 4.707-8.42 7.058-14.55 7.058-5.85 0-10.57-2.375-14.12-7.187-3.56-4.782-5.33-12.727-5.33-23.782zm80.2-24.168h27.95v-24.843c0-9.137-1.65-16.348-4.96-21.637-3.29-5.289-8.92-9.969-16.88-14.016l-6.11 13.18c4.98 2.684 8.39 5.34 10.26 7.973 1.86 2.656 2.89 5.769 3.11 9.386h-13.37zm152.03 14.45 25.49-8.907c-1.71-8.246-4.4-15.129-8.08-20.672-3.68-5.542-8.27-9.714-13.72-12.527-5.46-2.832-12.41-4.223-20.84-4.223-10.23 0-18.61 1.719-25.07 5.137-6.49 3.442-12.1 9.488-16.82 18.141-4.69 8.652-7.06 19.711-7.06 33.199 0.01 17.988 4.15 31.832 12.44 41.473 8.28 9.664 20.01 14.496 35.16 14.496 11.86 0 21.17-2.758 27.97-8.297 6.8-5.543 11.84-14.043 15.13-25.508l-25.69-6.601c-0.9 3.312-1.85 5.742-2.83 7.285-1.62 2.55-3.62 4.535-5.97 5.918-2.37 1.394-4.99 2.078-7.91 2.078-6.57 0-11.64-3.063-15.14-9.188-2.66-4.55-3.99-11.687-3.99-21.429 0-12.071 1.59-20.321 4.75-24.797 3.18-4.481 7.63-6.703 13.35-6.703 5.57 0 9.77 1.793 12.63 5.41 2.85 3.594 4.91 8.836 6.2 15.715zm40.78 64.269h29.15v-108.68h-29.15zm49.98 0h77.97v-23.203h-48.81v-17.277h45.27v-22.168h-45.27v-21.407h50.23v-24.621h-79.39zm28.96 27.785h18.57l14.25-21.203h-15.94l-7.82 11.336-7.83-11.336h-15.94zm66.27-27.785h27.19l35.45-60.117v60.117h27.42v-108.68h-27.42l-35.28 59.661v-59.661h-27.36zm172.08-64.269 25.5-8.907c-1.71-8.246-4.41-15.129-8.09-20.672-3.69-5.542-8.27-9.714-13.73-12.527-5.45-2.832-12.4-4.223-20.83-4.223-10.23 0-18.6 1.719-25.07 5.137-6.49 3.442-12.11 9.488-16.82 18.141-4.69 8.652-7.06 19.711-7.06 33.199 0 17.988 4.14 31.832 12.44 41.473 8.28 9.664 20.01 14.496 35.16 14.496 11.86 0 21.17-2.758 27.97-8.297 6.79-5.543 11.84-14.043 15.13-25.508l-25.69-6.601c-0.91 3.312-1.85 5.742-2.84 7.285-1.61 2.55-3.61 4.535-5.96 5.918-2.36 1.394-5 2.078-7.91 2.078-6.58 0-11.64-3.063-15.15-9.188-2.65-4.55-3.99-11.687-3.99-21.429 0-12.071 1.6-20.321 4.76-24.797 3.17-4.481 7.62-6.703 13.35-6.703 5.56 0 9.77 1.793 12.63 5.41 2.85 3.594 4.91 8.836 6.2 15.715zm40.78 64.269h29.15v-108.68h-29.15zm107.96-90.738h-33.15l-4.55-17.938h-29.72l35.37 108.68h31.73l35.4-108.68h-30.45zm-6.09 23.512-10.41 39.066-10.35-39.066zm94.29 67.226h77.96v-23.203h-48.81v-17.277h45.28v-22.168h-45.28v-21.407h50.23v-24.621h-79.38zm132.31 0h88.43v-26.844h-29.68v-81.832h-29.09v81.832h-29.66zm101.55 0h77.95v-23.203h-48.8v-17.277h45.27v-22.168h-45.27v-21.407h50.22v-24.621h-79.37zm157.73-64.269 25.5-8.907c-1.71-8.246-4.41-15.129-8.1-20.672-3.68-5.542-8.26-9.714-13.72-12.527-5.45-2.832-12.41-4.223-20.82-4.223-10.24 0-18.62 1.719-25.09 5.137-6.48 3.442-12.1 9.488-16.81 18.141-4.69 8.652-7.06 19.711-7.06 33.199 0 17.988 4.14 31.832 12.43 41.473 8.3 9.664 20.02 14.496 35.17 14.496 11.86 0 21.17-2.758 27.97-8.297 6.79-5.543 11.84-14.043 15.12-25.508l-25.69-6.601c-0.9 3.312-1.84 5.742-2.82 7.285-1.63 2.55-3.63 4.535-5.97 5.918-2.37 1.394-5 2.078-7.91 2.078-6.58 0-11.64-3.063-15.15-9.188-2.66-4.55-3.99-11.687-3.99-21.429 0-12.071 1.6-20.321 4.75-24.797 3.18-4.481 7.64-6.703 13.36-6.703 5.56 0 9.77 1.793 12.63 5.41 2.85 3.594 4.9 8.836 6.2 15.715zm39.81 64.269h27.19l35.44-60.117v60.117h27.43v-108.68h-27.43l-35.27 59.661v-59.661h-27.36zm105.71-54.398c0 17.738 4.3 31.55 12.84 41.418 8.58 9.894 20.5 14.828 35.78 14.828 15.69 0 27.76-4.856 36.25-14.574 8.46-9.696 12.71-23.301 12.71-40.786 0-12.703-1.86-23.128-5.57-31.253-3.7-8.125-9.05-14.446-16.05-18.977-7.01-4.527-15.71-6.781-26.17-6.781-10.61 0-19.4 1.949-26.37 5.843-6.95 3.926-12.58 10.102-16.93 18.547-4.32 8.453-6.49 19.032-6.49 31.735zm29.12-0.153c0-10.98 1.74-18.851 5.28-23.66 3.53-4.781 8.35-7.183 14.43-7.183 6.24 0 11.09 2.351 14.51 7.031 3.42 4.707 5.15 13.133 5.15 25.277 0 10.25-1.8 17.715-5.37 22.446-3.57 4.707-8.42 7.058-14.56 7.058-5.85 0-10.56-2.375-14.12-7.187-3.55-4.782-5.32-12.727-5.32-23.782zm84.12 54.551h29.11v-81.906h45.4v-26.77h-74.51zm81.81-54.398c0 17.738 4.3 31.55 12.84 41.418 8.58 9.894 20.5 14.828 35.79 14.828 15.67 0 27.75-4.856 36.24-14.574 8.46-9.696 12.71-23.301 12.71-40.786 0.01-12.703-1.86-23.128-5.57-31.253-3.7-8.125-9.05-14.446-16.04-18.977-7.02-4.527-15.72-6.781-26.18-6.781-10.61 0-19.41 1.949-26.37 5.843-6.95 3.926-12.59 10.102-16.93 18.547-4.32 8.453-6.49 19.032-6.49 31.735zm29.12-0.153c0-10.98 1.75-18.851 5.28-23.66 3.53-4.781 8.35-7.183 14.42-7.183 6.25 0 11.09 2.351 14.51 7.031 3.42 4.707 5.16 13.133 5.16 25.277 0 10.25-1.8 17.715-5.38 22.446-3.57 4.707-8.41 7.058-14.55 7.058-5.85 0-10.57-2.375-14.12-7.187-3.54-4.782-5.33-12.727-5.32-23.782zm131.47-14.754v22.594h44.95v-46.328c-8.6-6.754-16.21-11.387-22.83-13.812-6.62-2.457-14.47-3.672-23.55-3.672-11.17 0-20.28 2.203-27.31 6.605-7.06 4.379-12.52 10.93-16.38 19.637-3.88 8.699-5.83 18.672-5.83 29.933 0 11.868 2.12 22.188 6.35 30.969 4.26 8.754 10.46 15.41 18.64 19.965 6.38 3.52 14.97 5.262 25.76 5.262 10.39 0 18.17-1.086 23.35-3.262 5.15-2.18 9.42-5.539 12.84-10.125 3.4-4.551 5.97-10.348 7.68-17.379l-28.06-5.765c-1.17 4.093-3.14 7.23-5.9 9.41-2.74 2.172-6.27 3.261-10.55 3.261-6.37 0-11.46-2.558-15.25-7.671-3.79-5.137-5.71-13.207-5.71-24.29 0-11.761 1.93-20.164 5.77-25.199 3.82-5.035 9.16-7.566 16.03-7.566 3.24 0 6.35 0.558 9.29 1.644 2.96 1.086 6.36 2.934 10.15 5.543l0.01 10.246zm63.38 69.305h29.16v-108.68h-29.16zm107.97-90.738h-33.15l-4.56-17.938h-29.73l35.4 108.68h31.71l35.41-108.68h-30.45zm-6.09 23.512-10.42 39.066-10.35-39.066z"/>
<path d="m1053 224.18c0 17.742 3.72 31.558 11.1 41.425 7.39 9.883 17.7 14.825 30.89 14.825 13.54 0 23.98-4.86 31.3-14.575 7.31-9.683 10.98-23.304 10.98-40.789 0.01-12.699-1.61-23.132-4.81-31.25-3.19-8.117-7.82-14.445-13.86-18.976-6.05-4.528-13.57-6.781-22.6-6.781-9.17 0-16.76 1.945-22.78 5.847-6 3.918-10.87 10.094-14.62 18.543-3.73 8.453-5.6 19.031-5.6 31.731zm25.14-0.153c0-10.976 1.52-18.851 4.57-23.656 3.05-4.785 7.21-7.184 12.45-7.184 5.4 0 9.58 2.352 12.53 7.032 2.96 4.707 4.46 13.132 4.46 25.277 0 10.25-1.55 17.715-4.64 22.445-3.09 4.707-7.27 7.059-12.57 7.059-5.06 0-9.13-2.375-12.2-7.184-3.06-4.781-4.6-12.726-4.6-23.789zm-106.45 54.946h76.374v-26.844h-25.64v-81.828h-25.125v81.828h-25.609v26.844"/>
<path d="m1329.3 279.07h23.48l30.62-60.117v60.117h23.68v-108.68h-23.68l-30.47 59.665v-59.665h-23.63zm-183.72-55.914c0 17.742 3.71 31.555 11.09 41.418 7.4 9.895 17.75 13.809 30.9 14.828 19.45 1.508 34.91-16.308 37.88-26.828l2.55-49.539c0.43-8.293-8.14-23.617-16.82-29.219-6.06-4.527-13.58-6.785-22.6-6.785-9.17 0-16.76 1.949-22.78 5.848-6.01 3.922-10.87 10.097-14.62 18.543-3.73 8.453-5.61 19.035-5.6 31.734zm25.14-0.152c0-10.977 1.51-18.852 4.56-23.66 3.21-5.891 9.8-9.36 14.32-8.86 7.7 0.856 12.35 12.035 13.65 19.317l24.75-6.766-2.55 49.539-22.57-12.359c-0.53 4.941-7.17 14.019-15.37 13.758-5.04-0.153-9.12-2.375-12.19-7.184-3.07-4.781-4.6-12.727-4.6-23.785zm244.36 56.824h76.55v-26.848h-25.64v-81.828h-25.12v81.828h-25.62zm87.34-0.758h25.18v-108.68h-25.18zm43.37 0h23.48l30.62-60.117v60.117h23.69v-108.68h-23.69l-30.47 59.665v-59.665h-23.63zm-254.99-90.738h-28.62l-3.94-17.938h-25.67l30.55 108.68h27.4l30.57-108.68h-26.29zm-5.26 23.508-8.99 39.07-8.94-39.07zm348.21-5.489 23.92 2c0.51-5.191 1.57-9.148 3.16-11.867 2.56-4.398 6.28-6.578 11.09-6.578 3.58 0 6.35 1.113 8.29 3.363 1.93 2.254 2.9 4.86 2.9 7.821 0 2.804-0.91 5.344-2.76 7.562-1.85 2.219-6.14 4.328-12.88 6.301-11.01 3.316-18.88 7.691-23.57 13.184-4.73 5.492-7.1 12.472-7.1 20.976 0 5.59 1.21 10.879 3.64 15.84 2.42 4.957 6.06 8.856 10.92 11.715 4.87 2.836 11.53 4.25 20 4.25 10.39 0 18.32-2.578 23.78-7.742 5.45-5.164 8.69-13.387 9.72-24.641l-23.68-1.851c-0.62 4.886-1.95 8.453-3.97 10.679-2.01 2.199-4.79 3.317-8.33 3.317-2.94 0-5.14-0.813-6.61-2.485-1.48-1.644-2.22-3.668-2.22-6.047 0-1.718 0.61-3.261 1.82-4.652 1.19-1.441 3.99-2.758 8.44-4 10.99-3.164 18.85-6.383 23.59-9.617 4.75-3.231 8.22-7.235 10.38-12.047 2.16-4.781 3.26-10.141 3.26-16.086 0-6.961-1.46-13.387-4.34-19.262-2.87-5.89-6.91-10.343-12.1-13.379-5.16-3.039-11.7-4.558-19.58-4.558-13.82 0-23.39 3.543-28.71 10.679-5.35 7.106-8.36 16.145-9.06 27.125"/>
<path d="m1033.6 49.867 21.84-8.9336c-1.46-8.2734-3.77-15.18-6.93-20.738-3.15-5.5586-7.08-9.7461-11.75-12.562-4.68-2.8438-10.63-4.2422-17.84-4.2422-8.77 0-15.95 1.7266-21.493 5.1523-5.555 3.4531-10.371 9.5195-14.406 18.199-4.02 8.6836-6.047 19.777-6.047 33.301 0 18.051 3.551 31.934 10.652 41.602 7.098 9.699 17.144 14.546 30.124 14.546 10.16 0 18.14-2.769 23.97-8.328 5.82-5.558 10.14-14.086 12.95-25.582l-22.01-6.625c-0.77 3.3242-1.57 5.7617-2.42 7.3085-1.39 2.5625-3.1 4.543-5.11 5.9375-2.03 1.3985-4.28 2.0821-6.78 2.0821-5.63 0-9.97-3.0703-12.98-9.211-2.27-4.5703-3.42-11.726-3.42-21.5 0.01-12.105 1.38-20.379 4.08-24.875 2.73-4.4921 6.53-6.7265 11.44-6.7265 4.77 0 8.38 1.8047 10.82 5.4336 2.44 3.6054 4.2 8.8593 5.31 15.762"/>
<path d="m1117.2 23.32h-28.4l-3.9-18h-25.47l30.31 109.02h27.18l30.33-109.02h-26.08zm-5.22 23.578-8.92 39.188-8.87-39.188z"/>
<path d="m1155 114.34h32.79l12.66-66.32 12.61 66.32h32.68v-109.02h-20.36v83.129l-15.8-83.129h-18.43l-15.73 83.129v-83.129h-20.42v109.02"/>
<path d="m1261.5 114.34h41.44c9.01 0 15.77-2.895 20.26-8.703 4.49-5.7892 6.74-14.063 6.74-24.746 0-11.02-2.45-19.625-7.34-25.816-4.9-6.1953-12.38-9.289-22.43-9.289h-13.63v-40.461h-25.04zm25.04-46.473h6.1c4.81 0 8.17 1.1172 10.12 3.375 1.94 2.2578 2.91 5.1523 2.91 8.6562 0 3.4258-0.84 6.3438-2.53 8.7071-1.67 2.3828-4.85 3.5781-9.5 3.5781h-7.1v-24.316"/>
<path d="m1395.5 114.34h24.88v-65c0-6.4492-0.75-12.516-2.23-18.254-1.48-5.707-3.82-10.734-6.99-15.023s-6.5-7.2852-9.99-9.0352c-4.85-2.4141-10.65-3.6328-17.45-3.6328-3.93 0-8.21 0.35937-12.85 1.1172-4.63 0.73828-8.5 2.207-11.62 4.418-3.12 2.2109-5.98 5.3555-8.57 9.414-2.59 4.0625-4.35 8.254-5.31 12.566-1.54 6.9296-2.31 13.07-2.31 18.43v65h24.89v-66.551c0-5.9649 1.22-10.609 3.64-13.934 2.44-3.3516 5.82-5.0235 10.16-5.0235 4.28 0 7.66 1.6485 10.11 4.9492 2.41 3.2735 3.64 7.9649 3.64 14.008v66.551"/>
<path d="m1432.5 41.391 23.72 2.0039c0.5-5.2031 1.55-9.164 3.13-11.902 2.56-4.418 6.24-6.6016 11.01-6.6016 3.55 0 6.29 1.1172 8.23 3.3789 1.91 2.2539 2.87 4.8711 2.87 7.8399 0 2.8164-0.91 5.3554-2.75 7.5898-1.83 2.2344-6.08 4.3399-12.76 6.3203-10.93 3.3243-18.73 7.7149-23.39 13.223-4.69 5.5078-7.04 12.516-7.04 21.043 0 5.6093 1.2 10.914 3.61 15.891 2.4 4.972 6.01 8.883 10.83 11.75 4.83 2.84 11.44 4.265 19.83 4.265 10.31 0 18.19-2.589 23.59-7.769 5.42-5.176 8.62-13.426 9.66-24.723l-23.5-1.8515c-0.61 4.8984-1.93 8.4804-3.94 10.711-1.99 2.207-4.76 3.3242-8.27 3.3242-2.91 0-5.09-0.8125-6.55-2.4844-1.47-1.6523-2.2-3.6796-2.2-6.0664 0-1.7265 0.6-3.2734 1.8-4.6718 1.19-1.4454 3.97-2.7657 8.38-4.0079 10.9-3.1757 18.69-6.3984 23.4-9.6484 4.72-3.2461 8.16-7.2578 10.29-12.082 2.15-4.7969 3.24-10.176 3.24-16.141 0-6.9805-1.45-13.43-4.31-19.316-2.85-5.914-6.85-10.379-12-13.426-5.12-3.0469-11.6-4.5703-19.42-4.5703-13.71 0-23.21 3.5547-28.49 10.711-5.29 7.1328-8.28 16.195-8.97 27.211"/>
<path d="m1555.7 114.34h41.43c9.01 0 15.78-2.895 20.27-8.703 4.49-5.7892 6.74-14.063 6.74-24.746 0-11.02-2.44-19.625-7.34-25.816-4.91-6.1953-12.38-9.289-22.43-9.289h-13.63v-40.461h-25.04zm25.04-46.473h6.1c4.81 0 8.17 1.1172 10.12 3.375 1.94 2.2578 2.91 5.1523 2.91 8.6562 0.01 3.4258-0.84 6.3438-2.53 8.7071-1.67 2.3828-4.85 3.5781-9.5 3.5781h-7.1v-24.316"/>
<path d="m1677.2 23.32h-28.4l-3.91-18h-25.47l30.32 109.02h27.18l30.32-109.02h-26.08zm-5.23 23.578-8.92 39.188-8.86-39.188z"/>
<path d="m1715.2 114.34h24.95v-82.16h38.89v-26.855h-63.84v109.02"/>
<path d="m1790.2 114.34h32.79l12.67-66.32 12.59 66.32h32.69v-109.02h-20.36v83.129l-15.8-83.129h-18.42l-15.74 83.129v-83.129h-20.42v109.02"/>
<path d="m1946.4 23.32h-28.39l-3.91-18h-25.47l30.31 109.02h27.18l30.33-109.02h-26.08zm-5.22 23.578-8.92 39.188-8.86-39.188z"/>
<path d="m1980.1 41.391 23.72 2.0039c0.5-5.2031 1.56-9.164 3.14-11.902 2.55-4.418 6.23-6.6016 11-6.6016 3.55 0 6.29 1.1172 8.23 3.3789 1.91 2.2539 2.87 4.8711 2.87 7.8399 0 2.8164-0.9 5.3554-2.74 7.5898s-6.08 4.3399-12.77 6.3203c-10.93 3.3243-18.73 7.7149-23.38 13.223-4.7 5.5078-7.05 12.516-7.05 21.043 0 5.6093 1.2 10.914 3.61 15.891 2.41 4.972 6.01 8.883 10.83 11.75 4.83 2.84 11.44 4.265 19.84 4.265 10.31 0 18.18-2.589 23.59-7.769 5.41-5.176 8.62-13.426 9.65-24.723l-23.49-1.8515c-0.62 4.8984-1.94 8.4804-3.95 10.711-1.99 2.207-4.75 3.3242-8.26 3.3242-2.91 0-5.09-0.8125-6.56-2.4844-1.46-1.6523-2.19-3.6796-2.19-6.0664 0-1.7265 0.59-3.2734 1.8-4.6718 1.18-1.4454 3.96-2.7657 8.37-4.0079 10.9-3.1757 18.69-6.3984 23.41-9.6484 4.71-3.2461 8.15-7.2578 10.29-12.082 2.14-4.7969 3.23-10.176 3.23-16.141 0-6.9805-1.45-13.43-4.3-19.316-2.86-5.914-6.86-10.379-12-13.426-5.13-3.0469-11.61-4.5703-19.43-4.5703-13.7 0-23.21 3.5547-28.48 10.711-5.3 7.1328-8.29 16.195-8.98 27.211"/>
</g>
</g>
</g>
</svg>